<svg width="22" height="16" viewBox="0 0 22 16" fill="none" xmlns="http://www.w3.org/2000/svg">
<g transform="scale(1.2)">
    <g filter="url(#filter0_f)">
        <path d="M10.005 11.623C9.93501 11.556 9.87501 11.483 9.82301 11.405L4.39701 6.23001C4.27178 6.11298 4.17193 5.97146 4.10367 5.81423C4.03541 5.657 4.00018 5.48742 4.00018 5.31601C4.00018 5.14461 4.03541 4.97503 4.10367 4.8178C4.17193 4.66057 4.27178 4.51905 4.39701 4.40201C4.92701 3.89701 5.78501 3.89701 6.31501 4.40201L10.988 8.85801L15.685 4.37801C16.215 3.87401 17.073 3.87401 17.603 4.37801C17.728 4.49544 17.8277 4.63718 17.896 4.79452C17.9643 4.95187 17.9997 5.1215 18 5.29301C18 5.62301 17.868 5.95501 17.603 6.20701L12.152 11.405C12.0992 11.4842 12.0378 11.5573 11.969 11.623C11.7041 11.8731 11.3512 12.0086 10.987 12C10.6228 12.0085 10.27 11.873 10.005 11.623V11.623Z" fill="black" fill-opacity="0.13"/>
    </g>
    <path d="M10.005 11.623C9.93501 11.556 9.87501 11.483 9.82301 11.405L4.39701 6.23001C4.27178 6.11298 4.17193 5.97146 4.10367 5.81423C4.03541 5.657 4.00018 5.48742 4.00018 5.31601C4.00018 5.14461 4.03541 4.97503 4.10367 4.8178C4.17193 4.66057 4.27178 4.51905 4.39701 4.40201C4.92701 3.89701 5.78501 3.89701 6.31501 4.40201L10.988 8.85801L15.685 4.37801C16.215 3.87401 17.073 3.87401 17.603 4.37801C17.728 4.49544 17.8277 4.63718 17.896 4.79452C17.9643 4.95187 17.9997 5.1215 18 5.29301C18 5.62301 17.868 5.95501 17.603 6.20701L12.152 11.405C12.0992 11.4842 12.0378 11.5573 11.969 11.623C11.7041 11.8731 11.3512 12.0086 10.987 12C10.6228 12.0085 10.27 11.873 10.005 11.623V11.623Z" fill="#B3BBC3"/>
    <defs>
        <filter id="filter0_f" x="0.800183" y="0.8" width="20.3998" height="14.4004" filterUnits="userSpaceOnUse" color-interpolation-filters="sRGB">
            <feFlood flood-opacity="0" result="BackgroundImageFix"/>
            <feBlend mode="normal" in="SourceGraphic" in2="BackgroundImageFix" result="shape"/>
            <feGaussianBlur stdDeviation="1.6" result="effect1_foregroundBlur"/>
        </filter>
    </defs>
</g>
</svg>
