<?xml version="1.0" encoding="UTF-8"?>
<svg width="36px" height="26px" viewBox="0 0 36 26" version="1.1" xmlns="http://www.w3.org/2000/svg" xmlns:xlink="http://www.w3.org/1999/xlink">
    <title>Discord</title>
    <g id="Page-1" stroke="none" stroke-width="1" fill="none" fill-rule="evenodd">
        <g id="11pro-max-copy-2" transform="translate(-49.000000, -563.000000)" stroke="#000000" stroke-width="1.5">
            <g id="Discord" transform="translate(49.929290, 564.038346)">
                <path d="M27.8245866,5.77234839 C24.1671304,4.37479032 20.5825048,3.67601129 17.0707099,3.67601129 C13.558915,3.67601129 10.0956749,4.37479032 6.6809895,5.77234839" id="Path-10" stroke-linecap="round"></path>
                <circle id="Oval" cx="13.0707099" cy="11.9616539" r="3"></circle>
                <circle id="Oval-Copy-6" cx="22.0707099" cy="11.9616539" r="3"></circle>
                <path d="M13.9333997,3.55797906 L12.3751507,2.27373675e-13 C10.8551098,0.205543685 9.49284886,0.526094972 8.28836788,0.961653861 C7.08388691,1.39721275 5.90466886,2.03339397 4.75071374,2.87019751 C3.32473184,5.22881975 2.27063172,7.6657105 1.58841336,10.1808697 C0.906195007,12.696029 0.376723887,15.7327419 0,19.2910083 C1.41579629,20.6743957 2.91233316,21.7798729 4.48961059,22.60744 C6.06688803,23.4350071 7.89803764,23.8872673 9.98305943,23.9642205 L13.0707099,20.1222076 C11.5622485,19.8795526 10.1127593,19.5090843 8.7222423,19.0108027 C7.33172528,18.5125211 6.00788243,17.8891862 4.75071374,17.1407979" id="Path-11" stroke-linecap="round" stroke-linejoin="round"></path>
                <path d="M33.8782622,3.67601129 L32.0202869,2.27373675e-13 C30.500246,0.205543685 29.137985,0.526094972 27.9335041,0.961653861 C26.7290231,1.39721275 25.549805,2.03339397 24.3958499,2.87019751 C22.969868,5.22881975 21.9157679,7.6657105 21.2335495,10.1808697 C20.5513312,12.696029 20.0218601,15.7327419 19.6451362,19.2910083 C21.0609325,20.6743957 22.5574693,21.7798729 24.1347468,22.60744 C25.7120242,23.4350071 27.5431738,23.8872673 29.6281956,23.9642205 L32.7158461,20.1222076 C31.2073847,19.8795526 29.7578955,19.5090843 28.3673785,19.0108027 C26.9768615,18.5125211 25.6530186,17.8891862 24.3958499,17.1407979" id="Path-11" stroke-linecap="round" stroke-linejoin="round" transform="translate(26.761699, 11.982110) scale(-1, 1) translate(-26.761699, -11.982110) "></path>
                <path d="M4.75071374,17.1407979 C9.23315043,19.3141289 13.4005085,20.4007944 17.252788,20.4007944 C21.1050676,20.4007944 25.063321,19.3141289 29.1275485,17.1407979" id="Path-12"></path>
            </g>
        </g>
    </g>
</svg>