<svg xmlns="http://www.w3.org/2000/svg" width="19" height="19" viewBox="0 0 19 19"><g><g><g><path fill="#000000" d="M6.107 12.893H8.54l6.786-6.786-2.433-2.433-6.786 6.786zm7.745-10.179l2.434 2.434 1.076-1.077-2.433-2.433zM4.95 9.7l9.5-9.5a.678.678 0 0 1 .96 0L18.8 3.592a.678.678 0 0 1 0 .96l-9.5 9.5a.678.678 0 0 1-.48.198H5.43a.679.679 0 0 1-.679-.679V10.18c0-.18.072-.353.199-.48zM19 8.82v6.786A3.397 3.397 0 0 1 15.607 19H3.393A3.397 3.397 0 0 1 0 15.607V3.393A3.397 3.397 0 0 1 3.393 0h6.786a.679.679 0 0 1 0 1.357H3.393a2.038 2.038 0 0 0-2.036 2.036v12.214c0 1.123.913 2.036 2.036 2.036h12.214a2.038 2.038 0 0 0 2.036-2.036V8.821a.679.679 0 0 1 1.357 0z"/></g></g></g></svg>