<?xml version="1.0" encoding="UTF-8"?>
<svg width="22px" height="22px" viewBox="0 0 22 22" version="1.1" xmlns="http://www.w3.org/2000/svg" xmlns:xlink="http://www.w3.org/1999/xlink">
    <title>blockchain-3</title>
    <g id="Page-1" stroke="none" stroke-width="1" fill="none" fill-rule="evenodd">
        <g id="11pro-max-copy-9" transform="translate(-264.000000, -557.000000)" fill="#FFFFFF" fill-rule="nonzero">
            <g id="blockchain-3" transform="translate(264.000000, 557.000000)">
                <path d="M9.47125244,12.1666622 L6.4151001,10.6085415 C6.3269806,10.5635586 6.23651123,10.5251217 6.14453125,10.4922237 L6.14453125,10.0261135 C6.14453125,9.79666709 6.27058412,9.5892086 6.47351074,9.48380088 L9.19480895,8.11450765 C9.61878968,7.90117451 9.78965758,7.38454245 9.57632448,6.96056176 C9.36299134,6.53658102 8.84635924,6.36571313 8.42237855,6.5792141 L5.6973877,7.95035362 C5.69537354,7.95136068 5.69335938,7.95236778 5.69134521,7.95337484 C4.9106903,8.35402487 4.42578125,9.14810752 4.42578125,10.0261135 L4.42578125,10.5501308 C4.38230895,10.5690975 4.3393402,10.5894069 4.29670716,10.611227 L1.26539613,12.16683 C0.484909047,12.5673122 0,13.3615627 0,14.2395687 L0,18.1067562 C0,18.982748 0.483398438,19.7761593 1.26136781,20.1773128 L4.29267884,21.7406368 C4.62619016,21.9126797 4.99243164,21.9986172 5.35867312,21.9986172 C5.72290039,21.9986172 6.08695983,21.9135189 6.41912842,21.7433224 L9.4754486,20.1774807 C10.2567749,19.7771663 10.7421875,18.982748 10.7421875,18.1040706 L10.7421875,14.2420864 C10.7421875,13.3617306 10.2552643,12.5663051 9.47125244,12.1666622 Z M2.04907227,18.6497402 C1.84530638,18.5446682 1.71875,18.3365383 1.71875,18.1067562 L1.71875,14.832571 L4.5546875,16.2421474 L4.5546875,19.9418239 L2.04907227,18.6497402 Z M9.0234375,18.1040706 C9.0234375,18.3345241 8.89637757,18.5429897 8.69160463,18.647726 L6.2734375,19.8867702 L6.2734375,16.1546993 L7.16319274,15.6607265 C7.57810973,15.4302731 7.72782897,14.907095 7.49737549,14.492178 C7.26708984,14.0774288 6.74391175,13.9275417 6.32882688,14.1581631 L5.33433532,14.7103786 L2.6618805,13.38204 L5.08139036,12.1404781 C5.16816713,12.0959987 5.2633362,12.0736751 5.35867312,12.0736751 C5.4533386,12.0736751 5.54800417,12.0956631 5.63444518,12.1396389 L8.69059752,13.6979274 C8.89587402,13.8024959 9.0234375,14.0111294 9.0234375,14.2420864 L9.0234375,18.1040706 Z M20.7290649,1.81119346 L17.6729126,0.253072724 C17.0092468,-0.0853061827 16.2173462,-0.0842991241 15.5545197,0.25575827 L12.5232086,1.8113613 C11.7427215,2.21184345 11.2578125,3.00609399 11.2578125,3.8839321 L11.2578125,7.75128743 C11.2578125,8.62711143 11.7410431,9.42069053 12.5191803,9.82184408 L15.5504913,11.3850002 C15.6359253,11.4291439 15.7233734,11.4672451 15.8125,11.4999752 L15.8125,12.331152 C15.8125,12.5600948 15.6871185,12.7672176 15.4848633,12.8727932 L12.7655792,14.2259731 C12.3407593,14.4372921 12.1677093,14.9532528 12.3790283,15.3780727 C12.5294189,15.6800289 12.8332214,15.8547573 13.1491089,15.8547573 C13.2776794,15.8547573 13.408432,15.8258877 13.5312958,15.7646236 L16.2562866,14.4085903 C16.2594757,14.4070797 16.2626648,14.4054012 16.2658539,14.4038906 C17.046341,14.0032406 17.53125,13.2089901 17.53125,12.331152 L17.53125,11.4554958 C17.5804291,11.434515 17.6291046,11.4123592 17.6769409,11.3876858 L20.7332611,9.82184408 C21.5145874,9.42169759 22,8.62711143 22,7.74860189 L22,3.88661765 C22,3.00626182 21.5130768,2.2108364 20.7290649,1.81119346 Z M13.3068848,8.29427145 C13.1031189,8.18919945 12.9765625,7.98106957 12.9765625,7.75128743 L12.9765625,4.47710224 L15.8125,5.88667868 L15.8125,9.58635517 L13.3068848,8.29427145 Z M20.28125,7.74860189 C20.28125,7.97922325 20.1541901,8.18752097 19.9494171,8.29225729 L17.53125,9.53130146 L17.53125,5.79923057 L18.4210052,5.30525778 C18.8359222,5.0748043 18.9856415,4.55162621 18.755188,4.13670922 C18.5249023,3.72179223 18.0017243,3.57224083 17.5866394,3.80252647 L16.5921478,4.35474202 L13.919693,3.02657126 L16.3393707,1.78500938 C16.4261475,1.74052998 16.5213165,1.71820638 16.6164856,1.71820638 C16.7111511,1.71820638 16.8058167,1.74019431 16.8922577,1.78417016 L19.94841,3.34245869 C20.1536865,3.44702718 20.28125,3.65566061 20.28125,3.88661765 L20.28125,7.74860189 Z" id="Shape"></path>
            </g>
        </g>
    </g>
</svg>