<?xml version="1.0" encoding="UTF-8"?>
<svg width="14px" height="22px" viewBox="0 0 14 22" version="1.1" xmlns="http://www.w3.org/2000/svg" xmlns:xlink="http://www.w3.org/1999/xlink">
    <title>bitcoin-4</title>
    <g id="Page-1" stroke="none" stroke-width="1" fill="none" fill-rule="evenodd">
        <g id="11pro-max-copy-2" transform="translate(-358.000000, -290.000000)" fill="#484848" fill-rule="nonzero">
            <g id="bitcoin-4" transform="translate(358.000000, 290.000000)">
                <path d="M11.5596923,10.5776 C12.3996923,9.6888 12.9230769,8.4832 12.9230769,7.15 C12.9230769,4.609 11.032,2.5322 8.61538462,2.255 L8.61538462,1.1 C8.61538462,0.4928 8.13292308,0 7.53846154,0 C6.944,0 6.46153846,0.4928 6.46153846,1.1 L6.46153846,2.2 L4.30769231,2.2 L4.30769231,1.1 C4.30769231,0.4928 3.82523077,0 3.23076923,0 C2.63630769,0 2.15384615,0.4928 2.15384615,1.1 L2.15384615,2.2 L1.07692308,2.2 C0.482461538,2.2 0,2.6928 0,3.3 L0,18.7 C0,19.3072 0.482461538,19.8 1.07692308,19.8 L2.15384615,19.8 L2.15384615,20.9 C2.15384615,21.5072 2.63630769,22 3.23076923,22 C3.82523077,22 4.30769231,21.5072 4.30769231,20.9 L4.30769231,19.8 L6.46153846,19.8 L6.46153846,20.9 C6.46153846,21.5072 6.944,22 7.53846154,22 C8.13292308,22 8.61538462,21.5072 8.61538462,20.9 L8.61538462,19.8 L9.15384615,19.8 C11.8267692,19.8 14,17.5802 14,14.85 C14,13.0174 13.0092308,11.4356 11.5596923,10.5776 Z M2.15384615,4.4 L8.07692308,4.4 C9.56092308,4.4 10.7692308,5.6342 10.7692308,7.15 C10.7692308,8.6658 9.56092308,9.9 8.07692308,9.9 L2.15384615,9.9 L2.15384615,4.4 Z M9.15384615,17.6 L2.15384615,17.6 L2.15384615,12.1 L8.07692308,12.1 L9.15384615,12.1 C10.6378462,12.1 11.8461538,13.3342 11.8461538,14.85 C11.8461538,16.3658 10.6378462,17.6 9.15384615,17.6 Z" id="Shape"></path>
            </g>
        </g>
    </g>
</svg>