<?xml version="1.0" encoding="UTF-8"?>
<svg width="27px" height="22px" viewBox="0 0 27 22" version="1.1" xmlns="http://www.w3.org/2000/svg" xmlns:xlink="http://www.w3.org/1999/xlink">
    <title>message</title>
    <g id="Page-1" stroke="none" stroke-width="1" fill="none" fill-rule="evenodd">
        <g id="11pro-max-copy-2" transform="translate(-65.000000, -236.000000)" fill="#484848" fill-rule="nonzero">
            <g id="message" transform="translate(65.000000, 236.000000)">
                <path d="M1.6377373,21.9999897 C0.735230634,21.9951912 0.00478793468,21.2647485 0,20.3622419 L0,6.8925094 C0.00481309183,5.02263251 1.51945111,3.50799449 3.389328,3.5031814 L19.3725931,3.5031814 C21.2458893,3.5031814 22.765851,5.01921945 22.7706791,6.8925094 L22.7706791,15.8694117 C22.7706791,17.7427079 21.254641,19.2626696 19.3813511,19.2674977 L6.05174586,19.2674977 C5.90035108,19.2687269 5.75321746,19.3177715 5.6313641,19.4076249 L2.62738605,21.6759349 C2.3409558,21.8876067 1.99389125,22.0012473 1.6377373,21.9999897 Z M3.389328,5.2547721 C2.48682133,5.25956003 1.75637863,5.99000273 1.7515907,6.8925094 L1.7515907,20.143293 L4.58040968,18.0063524 C5.00604781,17.6902328 5.5215636,17.5183942 6.05174586,17.515907 L19.3725931,17.515907 C20.2819273,17.515907 21.0190884,16.7787459 21.0190884,15.8694117 L21.0190884,6.8925094 C21.0143004,5.99000273 20.2838577,5.25956003 19.3813511,5.2547721 L3.389328,5.2547721 Z" id="Shape"></path>
                <circle id="Oval" cx="14.8359732" cy="11.4641611" r="1"></circle>
                <circle id="Oval" cx="11.4378873" cy="11.4641611" r="1"></circle>
                <circle id="Oval" cx="7.93470586" cy="11.4641611" r="1"></circle>
                <path d="M25.3980651,13.1369302 C24.9143767,13.1369302 24.5222698,12.7448233 24.5222698,12.2611349 L24.5222698,3.389328 C24.5174818,2.48682133 23.7870391,1.75637863 22.8845325,1.7515907 L5.2547721,1.7515907 C4.77108368,1.7515907 4.37897675,1.35948376 4.37897675,0.875795349 C4.37897675,0.392106934 4.77108368,0 5.2547721,0 L22.8845325,0 C24.7544094,0.00481309183 26.2690474,1.51945111 26.2738605,3.389328 L26.2738605,12.2611349 C26.2738605,12.7448233 25.8817535,13.1369302 25.3980651,13.1369302 L25.3980651,13.1369302 Z" id="Path"></path>
            </g>
        </g>
    </g>
</svg>