<?xml version="1.0" encoding="UTF-8"?>
<svg width="22px" height="22px" viewBox="0 0 22 22" version="1.1" xmlns="http://www.w3.org/2000/svg" xmlns:xlink="http://www.w3.org/1999/xlink">
    <title>link-7</title>
    <g id="Page-1" stroke="none" stroke-width="1" fill="none" fill-rule="evenodd">
        <g id="11pro-max-copy-2" transform="translate(-39.000000, -289.000000)" fill="#484848" fill-rule="nonzero">
            <g id="link-7" transform="translate(50.000000, 299.999197) scale(-1, 1) translate(-50.000000, -299.999197) translate(39.000000, 289.000000)">
                <path d="M20.0125373,10.3423014 L18.1869141,8.51633455 C17.8242215,8.15394268 17.2368064,8.15394268 16.8740707,8.51633455 C16.5113351,8.87902719 16.5113351,9.46708684 16.8740707,9.8294787 L18.6996939,11.6554456 C20.6283972,13.5844497 20.6265496,16.7458181 18.6996939,18.6986694 C16.7712914,20.6270719 13.6099229,20.6255251 11.6564701,18.6986694 L9.83050319,16.8730463 C9.46811132,16.5103536 8.88009464,16.5103536 8.51735903,16.8730463 C8.15462342,17.2357819 8.15462342,17.8234548 8.51735903,18.1858896 L10.3476227,20.0161533 C11.6867625,21.3373325 13.4390393,21.9983947 15.1876209,21.9983947 C16.9398977,21.9983947 18.6891238,21.3345396 20.0170919,20.007173 C22.6626728,17.325499 22.6607822,12.9902456 20.0125373,10.3423014 Z" id="Path"></path>
                <path d="M13.4821362,3.81254486 L11.6518725,1.98193744 C8.970843,-0.663213807 4.63528882,-0.661065408 1.98270411,1.99091774 C-0.662747906,4.67229099 -0.660599507,9.00750142 1.98734465,11.6554456 L3.81331154,13.4814125 C3.99437857,13.6627803 4.23203441,13.7534427 4.46973323,13.7534427 C4.7070883,13.7534427 4.94478711,13.6627803 5.12615491,13.4811117 C5.48884755,13.1187198 5.48884755,12.5307031 5.12615491,12.1682683 L3.30018803,10.3423014 C1.37148473,8.41359813 1.37333235,5.25222969 3.30018803,3.29937839 C5.22919211,1.37097586 8.39056055,1.37286645 10.3434119,3.29937839 L12.1693787,5.12534527 C12.5321143,5.48808088 13.1194865,5.48808088 13.4822221,5.12534527 C13.8448718,4.7629534 13.8448718,4.17493673 13.4821362,3.81254486 Z" id="Path"></path>
                <path d="M14.008279,12.6950127 L9.30414554,7.99087923 C8.94175368,7.62814363 8.353737,7.62814363 7.99130217,7.99087923 C7.62860953,8.3532711 7.62860953,8.94128778 7.99130217,9.30372261 L12.6954356,14.007856 C12.8768034,14.1892238 13.1141585,14.2798863 13.3518573,14.2798863 C13.5895561,14.2798863 13.8269112,14.1892238 14.008279,14.007856 C14.3709716,13.6454212 14.3709716,13.0574045 14.008279,12.6950127 Z" id="Path"></path>
            </g>
        </g>
    </g>
</svg>