<?xml version="1.0" encoding="UTF-8"?>
<svg width="22px" height="19px" viewBox="0 0 22 19" version="1.1" xmlns="http://www.w3.org/2000/svg" xmlns:xlink="http://www.w3.org/1999/xlink">
    <title>chat-2</title>
    <g id="Page-1" stroke="none" stroke-width="1" fill="none" fill-rule="evenodd">
        <g id="11pro-max-copy-9" transform="translate(-128.000000, -558.000000)" fill="#FFFFFF" fill-rule="nonzero">
            <g id="chat-2" transform="translate(128.000000, 558.000000)">
                <path d="M20.893809,15.6522028 C22.0126463,14.1106666 22.3033696,12.1180737 21.6716241,10.321124 C21.0398786,8.52417429 19.566181,7.15189093 17.7288226,6.64965111 C16.6842825,2.82210574 13.1772747,-1.22120995e-15 9.02317634,-1.22120995e-15 C4.04796891,-1.22120995e-15 1.21711581e-07,4.04796867 1.21711581e-07,9.02317609 C-0.000327895397,11.0204986 0.662366122,12.9614289 1.88412535,14.5414928 L0.119020233,17.0288817 C-0.0204580055,17.2254602 -0.0385921497,17.4834369 0.0720138893,17.6975947 C0.182619928,17.9117526 0.403479017,18.0463563 0.644512822,18.0463563 L9.02317634,18.0463563 C10.4143416,18.0476842 11.7867639,17.72554 13.0320446,17.1053638 C13.9482746,17.7062833 15.0171883,18.0327716 16.1128147,18.0463563 L16.1493371,18.0463563 L21.3548503,18.0463563 C21.5964751,18.0463563 21.8177972,17.9111849 21.9281667,17.6962405 C22.0385362,17.4812961 22.0194109,17.2226748 21.8786242,17.0263036 L20.893809,15.6522028 Z M1.89057047,16.757327 L3.21783671,14.8865219 C3.38882441,14.64474 3.37304995,14.3175529 3.17959563,14.0933417 C1.95918539,12.6862285 1.28783911,10.8857998 1.28902383,9.02317609 C1.28902383,4.7586512 4.75865145,1.28902516 9.02317634,1.28902516 C13.2877012,1.28902516 16.7573273,4.7586512 16.7573273,9.02317609 C16.7573273,13.287701 13.2877012,16.757327 9.02317634,16.757327 L1.89057047,16.757327 Z M19.560957,16.0075441 L20.1001992,16.757327 L16.1557822,16.757327 C15.5144262,16.7521745 14.8816244,16.6096146 14.3000157,16.3392532 C16.9157581,14.4541695 18.3268807,11.3166126 18.0016662,8.10882758 C19.3201883,8.6829242 20.2860299,9.85121072 20.6019655,11.2541619 C20.9179012,12.6571131 20.5460769,14.1266335 19.6009168,15.2104968 C19.4054597,15.4353979 19.3896476,15.7649636 19.5626757,16.0075441 L19.560957,16.0075441 Z" id="Shape"></path>
                <path d="M5.15610087,7.08963836 L9.45285139,7.08963836 C9.80880586,7.08963836 10.097364,6.80108025 10.097364,6.44512578 C10.097364,6.08917131 9.80880586,5.8006132 9.45285139,5.8006132 L5.15610087,5.8006132 C4.8001464,5.8006132 4.51158829,6.08917131 4.51158829,6.44512578 C4.51158829,6.80108025 4.8001464,7.08963836 5.15610087,7.08963836 Z" id="Path"></path>
                <path d="M12.8902518,8.37866352 L5.15610087,8.37866352 C4.8001464,8.37866352 4.51158829,8.66722163 4.51158829,9.02317609 C4.51158829,9.37913056 4.8001464,9.66768867 5.15610087,9.66768867 L12.8902518,9.66768867 C13.2462063,9.66768867 13.5347644,9.37913056 13.5347644,9.02317609 C13.5347644,8.66722163 13.2462063,8.37866352 12.8902518,8.37866352 Z" id="Path"></path>
                <path d="M12.8902518,10.9567138 L5.15610087,10.9567138 C4.8001464,10.9567138 4.51158829,11.2452719 4.51158829,11.6012264 C4.51158829,11.9571809 4.8001464,12.245739 5.15610087,12.245739 L12.8902518,12.245739 C13.2462063,12.245739 13.5347644,11.9571809 13.5347644,11.6012264 C13.5347644,11.2452719 13.2462063,10.9567138 12.8902518,10.9567138 Z" id="Path"></path>
            </g>
        </g>
    </g>
</svg>