<svg width="157" height="157" viewBox="0 0 157 157" fill="none" xmlns="http://www.w3.org/2000/svg">
<circle cx="78.5" cy="78.5" r="78.5" fill="url(#paint0_radial)"/>
<path fill-rule="evenodd" clip-rule="evenodd" d="M78.5 157C121.854 157 157 121.854 157 78.5C157 35.1456 121.854 0 78.5 0C35.1456 0 0 35.1456 0 78.5C0 121.854 35.1456 157 78.5 157ZM78.5 156C121.302 156 156 121.302 156 78.5C156 35.6979 121.302 1 78.5 1C35.6979 1 1 35.6979 1 78.5C1 121.302 35.6979 156 78.5 156Z" fill="#D1D1D1"/>
<path fill-rule="evenodd" clip-rule="evenodd" d="M16.0655 124.415C6.2785 111.107 1 95.0195 1 78.5C1.00002 77.1193 2.1193 76 3.50002 76C4.88073 76 6.00002 77.1193 6 78.5L6 78.5087C6.00469 118.545 38.4623 151 78.5 151C118.541 151 151 118.541 151 78.5C151 38.4594 118.541 6.00001 78.5 6.00001C69.4982 6.00001 60.8796 7.64058 52.9269 10.639L52.9012 10.5708C52.5015 10.8417 52.0192 11 51.5 11C50.1193 11 49 9.88072 49 8.50001C49 7.22564 49.9535 6.17397 51.1861 6.01954L51.1706 5.9786C66.6289 0.153226 83.5441 -0.580325 99.4486 3.88496C115.353 8.35025 129.415 17.7807 139.582 30.8006C149.749 43.8205 155.49 59.7486 155.968 76.2611C156.445 92.7737 151.633 109.007 142.235 122.592C132.837 136.177 119.343 146.404 103.723 151.781C88.1028 157.157 71.1735 157.402 55.4046 152.479C39.6357 147.556 25.8524 137.723 16.0655 124.415Z" fill="url(#paint1_linear)"/>
<defs>
<radialGradient id="paint0_radial" cx="0" cy="0" r="1" gradientUnits="userSpaceOnUse" gradientTransform="translate(78.5 78.5) rotate(90) scale(78.5)">
<stop stop-color="#1F1F1F"/>
<stop offset="1" stop-color="#141414"/>
</radialGradient>
<linearGradient id="paint1_linear" x1="24.5" y1="24.5" x2="144" y2="130.5" gradientUnits="userSpaceOnUse">
<stop stop-color="#6986BB"/>
<stop offset="1" stop-color="#AC73C2"/>
</linearGradient>
</defs>
</svg>
