<?xml version="1.0" encoding="UTF-8"?>
<svg width="22px" height="22px" viewBox="0 0 22 22" version="1.1" xmlns="http://www.w3.org/2000/svg" xmlns:xlink="http://www.w3.org/1999/xlink">
    <title>Group 2</title>
    <g id="Page-1" stroke="none" stroke-width="1" fill="none" fill-rule="evenodd">
        <g id="11pro-max-copy-9" transform="translate(-332.000000, -557.000000)" fill="#FFFFFF" fill-rule="nonzero">
            <g id="Group-2" transform="translate(332.000000, 557.000000)">
                <g id="image">
                    <path d="M19.0511489,21.9951097 L2.94396084,21.9951097 C1.31805616,21.9951097 0,20.6770535 0,19.0511489 L0,2.94396084 C0,1.31805616 1.31805616,0 2.94396084,0 L19.0511489,0 C20.6770535,0 21.9951097,1.31805616 21.9951097,2.94396084 L21.9951097,19.0511489 C21.9951097,20.6770535 20.6770535,21.9951097 19.0511489,21.9951097 Z M2.94396084,1.69193152 C2.25248414,1.69193152 1.69193152,2.25248414 1.69193152,2.94396084 L1.69193152,19.0511489 C1.69193152,19.7426256 2.25248414,20.3031782 2.94396084,20.3031782 L19.0511489,20.3031782 C19.7426256,20.3031782 20.3031782,19.7426256 20.3031782,19.0511489 L20.3031782,2.94396084 C20.3031782,2.25248414 19.7426256,1.69193152 19.0511489,1.69193152 L2.94396084,1.69193152 Z" id="Shape"></path>
                    <path d="M0.845965758,19.6789239 C0.599456644,19.6781563 0.365208421,19.5713062 0.203031782,19.3856558 C0.0572981936,19.2139191 -0.0139324769,18.9911564 0.00512286871,18.7667268 C0.0241782143,18.5422971 0.131946122,18.3347324 0.304547673,18.1900242 L6.07967391,13.3172614 C6.97349716,12.5628666 8.29565697,12.6167323 9.12515064,13.4413364 L11.8660797,16.1822655 C12.0771335,16.3627876 12.3881962,16.3627876 12.59925,16.1822655 L15.2612223,14.2534635 C16.0723702,13.6290323 17.202283,13.6290323 18.0134309,14.2534635 L21.6792825,17.1748653 C21.9170403,17.3642655 22.0356937,17.6661209 21.9905471,17.9667253 C21.9454006,18.2673297 21.7433129,18.5210142 21.4604086,18.6322183 C21.1775043,18.7434225 20.8567632,18.6952517 20.6190054,18.5058514 L16.9644333,15.5731701 C16.7616464,15.4170623 16.4791682,15.4170623 16.2763812,15.5731701 L13.6144089,17.6373266 C12.718756,18.3098619 11.4652971,18.2234165 10.6704481,17.4342948 L7.92951904,14.636968 C7.71485855,14.4432314 7.38845011,14.4432314 7.17378963,14.636968 L1.38738384,19.4871717 C1.23629323,19.6149049 1.04377066,19.6830899 0.845965758,19.6789239 L0.845965758,19.6789239 Z" id="Path"></path>
                </g>
                <g id="pin" transform="translate(9.000000, 4.000000)">
                    <path d="M6.60755409,1.89785382 C6.0782355,0.846183025 5.05405846,0.138383397 3.88982185,0.0196532847 C3.63065121,-0.00655109491 3.36952864,-0.00655109491 3.110358,0.0196532847 C1.94615533,0.138460189 0.921982676,0.846146834 0.392454004,1.89768074 C-0.27793812,3.24776391 -0.0772839589,4.87160032 0.901195781,6.0147816 L3.23464076,8.87365633 C3.29989126,8.95364609 3.39724974,9 3.5,9 C3.60275835,9 3.70011683,8.95364609 3.76536733,8.87365633 L6.09881231,6.0147816 C7.07727968,4.8716627 7.27793559,3.24788042 6.60755409,1.89785382 L6.60755409,1.89785382 Z M3.50000405,4.84596887 C2.74113754,4.84596887 2.12595468,4.22604257 2.12595468,3.46132474 C2.12595468,2.6966069 2.74113754,2.07668061 3.50000405,2.07668061 C4.25887056,2.07668061 4.87405341,2.6966069 4.87405341,3.46132474 C4.87316374,4.22567091 4.25850174,4.84507234 3.50000405,4.84596887 Z" id="Shape"></path>
                </g>
            </g>
        </g>
    </g>
</svg>