<?xml version="1.0" encoding="UTF-8"?>
<svg width="19px" height="23px" viewBox="0 0 19 23" version="1.1" xmlns="http://www.w3.org/2000/svg" xmlns:xlink="http://www.w3.org/1999/xlink">
    <title>account</title>
    <defs>
        , #6600ff 100%
        <linearGradient id="Gradient3">
            <stop stop-color="#3e236e" offset="10%"/>
            <stop stop-color="#3e236e" offset="20%"/>
            <stop stop-color="#3e236e" offset="30%"/>
            <stop stop-color="#482980" offset="40%"/>
            <stop stop-color="#482980" offset="50%"/>
            <stop stop-color="#5d34a5" offset="60%"/>
            <stop stop-color="#5d34a5" offset="70%"/>
            <stop stop-color="#673ab7" offset="80%"/>
            <stop stop-color="#673ab7" offset="90%"/>
            <stop stop-color="#673ab7" offset="100%"/>
        </linearGradient>
    </defs>
    <g id="Page-1" stroke="none" stroke-width="1" fill="none" fill-rule="evenodd">
        <g id="11pro-max-copy-9" transform="translate(-162.000000, -678.000000)" fill="#fff" fill-rule="nonzero">
            <g id="Group-4" transform="translate(146.000000, 671.000000)">
                <g id="Group-6" transform="translate(16.000000, 5.000000)">
                    <g id="account" transform="translate(0.000000, 2.000000)">
                        <path d="M16.1821821,11.3837128 C15.9640398,11.1607337 15.6426072,11.0727186 15.3412994,11.1534611 C15.0399917,11.2342036 14.8056412,11.4711539 14.7282277,11.7733341 C14.6508142,12.0755143 14.74237,12.3959564 14.9677421,12.6116254 C16.4479286,14.0681535 17.2788046,16.0596534 17.2726909,18.1362826 C17.2726909,19.1925915 14.2448817,20.7271801 9.5,20.7271801 C4.75511503,20.7271801 1.72730584,19.1918142 1.72730584,18.1345553 C1.72143219,16.0724753 2.54082032,14.0937594 4.00280476,12.6395208 C4.22559473,12.4223072 4.31431639,12.1020415 4.23505404,11.8011519 C4.15579168,11.5002623 3.92080055,11.2652711 3.61991092,11.1860088 C3.31902129,11.1067464 2.99875557,11.1954681 2.78154203,11.4182581 C0.99423932,13.196164 -0.00736964951,15.6153015 0,18.1362826 C0,20.9410155 4.89424623,22.4544451 9.5,22.4544451 C14.1057505,22.4544451 19,20.9410155 19,18.1362826 C19.0077125,15.5979402 17.9919057,13.1636404 16.1821821,11.3837128 L16.1821821,11.3837128 Z" id="Path"></path>
                        <path d="M9.50002539,12.090855 C12.8388377,12.090855 15.5454799,9.38422495 15.5454799,6.04542752 C15.5454799,2.7066301 12.8388377,0 9.50002539,0 C6.16121304,0 3.45457084,2.7066301 3.45457084,6.04542752 C3.45842579,9.38262688 6.16281111,12.0870001 9.50002539,12.090855 Z M9.50002539,1.72726501 C11.8848914,1.72726501 13.8182072,3.66057222 13.8182072,6.04542752 C13.8182072,8.43028283 11.8848914,10.36359 9.50002539,10.36359 C7.11515942,10.36359 5.18184357,8.43028283 5.18184357,6.04542752 C5.18465137,3.66173621 7.11632342,1.7300728 9.50002539,1.72726501 Z" id="Shape"></path>
                    </g>
                </g>
            </g>
        </g>
    </g>
</svg>