<?xml version="1.0" encoding="UTF-8"?>
<svg width="37px" height="28px" viewBox="0 0 37 28" version="1.1" xmlns="http://www.w3.org/2000/svg" xmlns:xlink="http://www.w3.org/1999/xlink">
    <title>Rarible</title>
    <g id="Page-1" stroke="none" stroke-width="1" fill="none" fill-rule="evenodd">
        <g id="11pro-max-copy-2" transform="translate(-258.000000, -562.000000)" stroke="#FFFFFF" stroke-width="1.5">
            <g id="Group-11" transform="translate(36.000000, 555.000000)">
                <g id="Rarible" transform="translate(223.312500, 8.000000)">
                    <path d="M0,0 L0,26 L10,26 L10,17.225 C18.125,17.225 22.5,17.225 23.125,17.225 C23.75,17.225 24.2708333,17.7666667 24.6875,18.85 L24.6875,26 L34.6875,26 L34.6875,17.225 C34.6875,16.3583333 34.2708333,15.4916667 33.4375,14.625 C32.6041667,13.7583333 31.6666667,13.1083333 30.625,12.675 C33.3333333,12.025 34.6875,9.96666667 34.6875,6.5 C34.6875,3.03333333 32.1875,0.866666667 27.1875,0 L0,0 Z" id="Path-6" stroke-linejoin="round"></path>
                    <path d="M23.6032641,6.25 C24.1363537,6.48204726 24.5159126,6.79678715 24.7646627,7.16991235 C25.0001556,7.52315168 25.125,7.93375 25.125,8.40625 C25.125,8.87875 25.0001556,9.28934832 24.7646627,9.64258765 C24.5159126,10.0157128 24.1363537,10.3304527 23.6032641,10.5625 L23.6032641,10.5625 L9.25,10.5625 L9.25,6.25 Z" id="Rectangle"></path>
                </g>
            </g>
        </g>
    </g>
</svg>