<?xml version="1.0" encoding="UTF-8"?>
<svg width="22px" height="22px" viewBox="0 0 22 22" version="1.1" xmlns="http://www.w3.org/2000/svg" xmlns:xlink="http://www.w3.org/1999/xlink">
    <title>settings-2</title>
    <g id="Page-1" stroke="none" stroke-width="1" fill="none" fill-rule="evenodd">
        <g id="11pro-max-copy-2" transform="translate(-190.000000, -23.000000)" fill="#000" fill-rule="nonzero">
            <g id="settings-2" transform="translate(190.000000, 23.000000)">
                <path d="M11.6903359,22 L10.3096211,22 C9.19290625,22 8.28433203,21.0914687 8.28433203,19.9747539 L8.28433203,19.5076406 C7.80957031,19.3559609 7.34830078,19.1644922 6.90516406,18.935168 L6.57413281,19.2661992 C5.77237891,20.0689414 4.48808594,20.0453945 3.70962109,19.2658984 L2.73375781,18.2900781 C1.95391797,17.5110977 1.93148828,16.2272344 2.73401562,15.4255664 L3.06478906,15.094793 C2.83546484,14.6516563 2.64403906,14.1904727 2.49231641,13.715625 L2.02524609,13.715625 C0.908574219,13.715625 0,12.8070938 0,11.6903789 L0,10.3096211 C0,9.19290625 0.908574219,8.284375 2.02528906,8.284375 L2.49235937,8.284375 C2.64408203,7.80957031 2.83550781,7.34834375 3.06483203,6.90520703 L2.73380078,6.57421875 C1.93174609,5.77302344 1.953875,4.48903125 2.73405859,3.70970703 L3.71000781,2.73380078 C4.49027734,1.95245703 5.77426953,1.93294922 6.57447656,2.73405859 L6.90520703,3.06478906 C7.34834375,2.83550781 7.80961328,2.64403906 8.284375,2.49231641 L8.284375,2.02524609 C8.284375,0.90853125 9.19290625,0 10.3096641,0 L11.6903789,0 C12.8070937,0 13.715625,0.90853125 13.715625,2.02524609 L13.715625,2.49235938 C14.1903867,2.64403906 14.6516562,2.83550781 15.094793,3.06483203 L15.4258242,2.73380078 C16.2275781,1.93105859 17.5118711,1.95460547 18.2903359,2.73410156 L19.2661992,3.70992188 C20.0460391,4.48890234 20.0684688,5.77276563 19.2659414,6.57443359 L18.935168,6.90520703 C19.1644922,7.34834375 19.355918,7.80952734 19.5076406,8.284375 L19.9747109,8.284375 C21.0914258,8.284375 22,9.19290625 22,10.3096211 L22,11.6903789 C22,12.8070938 21.0914258,13.715625 19.9747109,13.715625 L19.5076406,13.715625 C19.355918,14.1904297 19.1644922,14.6516563 18.935168,15.094793 L19.2661992,15.4258242 C20.0682539,16.2270195 20.046125,17.5110117 19.2659414,18.2903359 L18.2899922,19.2662422 C17.5097227,20.0475859 16.2257305,20.0670938 15.4255234,19.2659844 L15.094793,18.9352539 C14.6516563,19.1645352 14.1903867,19.3560039 13.715625,19.5077266 L13.715625,19.9748398 C13.715625,21.0914688 12.8070938,22 11.6903359,22 Z M7.12065234,17.5815234 C7.73626562,17.9455977 8.39884375,18.2206406 9.08995313,18.3990039 C9.37457812,18.4724375 9.5734375,18.7291328 9.5734375,19.023082 L9.5734375,19.9747539 C9.5734375,20.3806797 9.90373828,20.7109375 10.3096641,20.7109375 L11.6903789,20.7109375 C12.0963047,20.7109375 12.4266055,20.3806797 12.4266055,19.9747539 L12.4266055,19.023082 C12.4266055,18.7291328 12.6254648,18.4724375 12.9100898,18.3990039 C13.6011992,18.2206406 14.2637773,17.9455977 14.8793906,17.5815234 C15.1326914,17.4317344 15.4551719,17.4724687 15.6632695,17.6805664 L16.3373633,18.3547031 C16.6280039,18.6456875 17.0947305,18.6389414 17.3782383,18.3550039 L18.3547891,17.3784961 C18.6376094,17.0960195 18.6470625,16.629207 18.3550469,16.3375781 L17.6806523,15.6631836 C17.4725977,15.4551289 17.4318633,15.1326055 17.5816094,14.8793477 C17.9456836,14.2637773 18.2206836,13.6011992 18.3990469,12.9100469 C18.4725234,12.6254219 18.7292187,12.4266055 19.023125,12.4266055 L19.9747539,12.4266055 C20.3806797,12.4266055 20.7109805,12.0963477 20.7109805,11.6904219 L20.7109805,10.3096641 C20.7109805,9.90373828 20.3806797,9.57348047 19.9747539,9.57348047 L19.023125,9.57348047 C18.7291758,9.57348047 18.4725234,9.37462109 18.3990469,9.09003906 C18.2206836,8.39888672 17.9456406,7.73630859 17.5816094,7.12073828 C17.4318633,6.86748047 17.4725977,6.54495703 17.6806523,6.33690234 L18.3547891,5.66276562 C18.6462031,5.37169531 18.6385977,4.90505469 18.3550469,4.62184766 L17.378582,3.64538281 C17.0955469,3.36196094 16.6287344,3.35366797 16.3376641,3.645125 L15.6633125,4.31951953 C15.4552578,4.52761719 15.1326484,4.56835156 14.8794336,4.4185625 C14.2638203,4.05448828 13.6012422,3.77944531 12.9101328,3.60108203 C12.6255078,3.52764844 12.4266484,3.27095312 12.4266484,2.97700391 L12.4266484,2.02524609 C12.4266484,1.61932031 12.0963477,1.2890625 11.6904219,1.2890625 L10.309707,1.2890625 C9.90378125,1.2890625 9.57348047,1.61932031 9.57348047,2.02524609 L9.57348047,2.97691797 C9.57348047,3.27086719 9.37462109,3.5275625 9.08999609,3.60099609 C8.39888672,3.77935937 7.73630859,4.05440234 7.12069531,4.41847656 C6.86735156,4.56822266 6.54487109,4.52748828 6.33681641,4.31943359 L5.66272266,3.64529687 C5.37208203,3.3543125 4.9053125,3.36105859 4.62184766,3.64499609 L3.64529687,4.62150391 C3.36247656,4.90398047 3.35302344,5.37075 3.64503906,5.66242187 L4.31943359,6.33681641 C4.52748828,6.54487109 4.56822266,6.86739453 4.41847656,7.12065234 C4.05440234,7.73622266 3.77940234,8.39880078 3.60103906,9.08995312 C3.5275625,9.37457812 3.27086719,9.57339453 2.97696094,9.57339453 L2.02528906,9.57339453 C1.61936328,9.5734375 1.2890625,9.90369531 1.2890625,10.3096211 L1.2890625,11.6903789 C1.2890625,12.0963047 1.61936328,12.4265625 2.02528906,12.4265625 L2.97691797,12.4265625 C3.27086719,12.4265625 3.52751953,12.6254219 3.60099609,12.9100039 C3.77935937,13.6011562 4.05440234,14.2637344 4.41843359,14.8793047 C4.56817969,15.1325625 4.52744531,15.4550859 4.31939062,15.6631406 L3.64525391,16.3372773 C3.35383984,16.6283477 3.36144531,17.0949883 3.64499609,17.3781953 L4.62146094,18.3546602 C4.90449609,18.638082 5.37130859,18.646375 5.66237891,18.354918 L6.33673047,17.6805234 C6.49004297,17.5272539 6.809,17.3971875 7.12065234,17.5815234 L7.12065234,17.5815234 Z" id="Shape"></path>
                <path d="M11,15.7867187 C8.36055859,15.7867187 6.21328125,13.6393984 6.21328125,11 C6.21328125,8.36060156 8.36055859,6.21328125 11,6.21328125 C13.6394414,6.21328125 15.7867187,8.36060156 15.7867187,11 C15.7867187,13.6393984 13.6394414,15.7867187 11,15.7867187 Z M11,7.50234375 C9.07134766,7.50234375 7.50234375,9.07139062 7.50234375,11 C7.50234375,12.9286094 9.07139062,14.4976562 11,14.4976562 C12.9286094,14.4976562 14.4976562,12.9286094 14.4976562,11 C14.4976562,9.07139062 12.9286523,7.50234375 11,7.50234375 L11,7.50234375 Z" id="Shape"></path>
            </g>
        </g>
    </g>
</svg>