<svg xmlns="http://www.w3.org/2000/svg" width="24" height="23" viewBox="0 0 24 23"><g><g><path fill="#979797" d="M23.746 7.633L16.888.273A.797.797 0 0 0 16.286 0a.797.797 0 0 0-.603.273.918.918 0 0 0-.254.647V4.6h-3C6.062 4.6 2.156 6.531.709 10.393.238 11.677 0 13.273 0 15.18c0 1.591.567 3.752 1.7 6.483a35.262 35.262 0 0 0 .322.776c.054.125.112.23.174.316.108.163.233.245.375.245a.38.38 0 0 0 .315-.144.561.561 0 0 0 .114-.359c0-.086-.011-.213-.034-.38a3.184 3.184 0 0 1-.033-.339 26.055 26.055 0 0 1-.067-1.768c0-.967.078-1.835.234-2.601.157-.767.373-1.43.65-1.991a4.96 4.96 0 0 1 1.071-1.452c.438-.407.909-.74 1.413-1a7.294 7.294 0 0 1 1.782-.61c.683-.149 1.37-.252 2.062-.31a28.637 28.637 0 0 1 2.35-.085h3v3.68c0 .249.085.464.255.646a.799.799 0 0 0 1.206 0l6.857-7.36A.917.917 0 0 0 24 8.28a.92.92 0 0 0-.254-.647z"/></g></g></svg>