<svg xmlns="http://www.w3.org/2000/svg" width="36" height="32" viewBox="0 0 36 32"><g><g><path fill="#7317b2" d="M31.996 13.143H21.33c-.347 0-.628-.256-.628-.572V2.857C20.703 1.28 19.3 0 17.566 0c-1.732 0-3.136 1.28-3.136 2.857v9.714c0 .316-.281.572-.628.572H3.137C1.405 13.143 0 14.423 0 16c0 1.578 1.405 2.857 3.137 2.857h10.665c.347 0 .628.256.628.572v9.714c0 1.578 1.404 2.857 3.136 2.857 1.733 0 3.137-1.28 3.137-2.857v-9.714c0-.316.281-.572.628-.572h10.665c1.732 0 3.137-1.28 3.137-2.857 0-1.578-1.405-2.857-3.137-2.857z"/></g></g></svg>