<svg xmlns="http://www.w3.org/2000/svg" width="22" height="16" viewBox="0 0 22 12"><defs><mask id="jwg7b" width="2" height="2" x="-1" y="-1"><path fill="#000000" d="M7-1h8v14H7z"/><path d="M7.377 6.995c.067.07.14.13.218.182l5.175 5.426c.504.53 1.323.53 1.828 0a1.403 1.403 0 0 0 0-1.918l-4.456-4.673 4.48-4.697a1.403 1.403 0 0 0 0-1.918A1.259 1.259 0 0 0 13.706-1c-.33 0-.662.132-.914.397L7.595 4.848a1.297 1.297 0 0 0-.218.183c-.258.27-.383.627-.377.982-.006.355.119.71.377.982z"/></mask><filter id="jwg7a" width="38" height="42" x="-7" y="-15" filterUnits="userSpaceOnUse"><feOffset dx="2" in="SourceGraphic" result="FeOffset1045Out"/><feGaussianBlur in="FeOffset1045Out" result="FeGaussianBlur1046Out" stdDeviation="1.6 1.6"/></filter></defs><g><g transform="rotate(-90 11 6)"><g transform="rotate(180 11 6)"><g filter="url(#jwg7a)"><path fill="none" d="M7.377 6.995c.067.07.14.13.218.182l5.175 5.426c.504.53 1.323.53 1.828 0a1.403 1.403 0 0 0 0-1.918l-4.456-4.673 4.48-4.697a1.403 1.403 0 0 0 0-1.918A1.259 1.259 0 0 0 13.706-1c-.33 0-.662.132-.914.397L7.595 4.848a1.297 1.297 0 0 0-.218.183c-.258.27-.383.627-.377.982-.006.355.119.71.377.982z" mask="url(&quot;#jwg7b&quot;)"/><path fill-opacity=".13" d="M7.377 6.995c.067.07.14.13.218.182l5.175 5.426c.504.53 1.323.53 1.828 0a1.403 1.403 0 0 0 0-1.918l-4.456-4.673 4.48-4.697a1.403 1.403 0 0 0 0-1.918A1.259 1.259 0 0 0 13.706-1c-.33 0-.662.132-.914.397L7.595 4.848a1.297 1.297 0 0 0-.218.183c-.258.27-.383.627-.377.982-.006.355.119.71.377.982z"/></g><path fill="#000" d="M7.377 6.995c.067.07.14.13.218.182l5.175 5.426c.504.53 1.323.53 1.828 0a1.403 1.403 0 0 0 0-1.918l-4.456-4.673 4.48-4.697a1.403 1.403 0 0 0 0-1.918A1.259 1.259 0 0 0 13.706-1c-.33 0-.662.132-.914.397L7.595 4.848a1.297 1.297 0 0 0-.218.183c-.258.27-.383.627-.377.982-.006.355.119.71.377.982z"/></g></g></g></svg>