<svg xmlns="http://www.w3.org/2000/svg" width="102" height="102" viewBox="0 0 102 102">
    <g transform="scale(3.8) translate(-37.5 -37.5)">
        <clipPath id="mgt7a">
            <path fill="#fff" d="M38 64V38h26v26zm17.58-13.935h-9.17a.903.903 0 0 1 0-1.806h9.17a.903.903 0 0 1 0 1.806zm-2.285 3.66H46.41a.9.9 0 0 1-.903-.898.9.9 0 0 1 .903-.899h6.884a.9.9 0 0 1 .903.899.9.9 0 0 1-.903.898zm5.483-10.502a10.997 10.997 0 0 0-15.556 0c-3.456 3.455-4.11 8.592-2.066 12.684l-1.133 4.98a.904.904 0 0 0 1.081 1.082l4.984-1.133C53.334 64.452 62 59.217 62 50.996a10.92 10.92 0 0 0-3.222-7.773z"/>
        </clipPath>
        <path fill="none" stroke="#fff" stroke-miterlimit="20" stroke-width="4" d="M55.58 50.065h-9.17a.903.903 0 0 1 0-1.806h9.17a.903.903 0 0 1 0 1.806zm-2.285 3.66H46.41a.9.9 0 0 1-.903-.898.9.9 0 0 1 .903-.899h6.884a.9.9 0 0 1 .903.899.9.9 0 0 1-.903.898zm5.483-10.502a10.997 10.997 0 0 0-15.556 0c-3.456 3.455-4.11 8.592-2.066 12.684l-1.133 4.98a.904.904 0 0 0 1.081 1.082l4.984-1.133C53.334 64.452 62 59.217 62 50.996a10.92 10.92 0 0 0-3.222-7.773z" clip-path="url(&quot;#mgt7a&quot;)"/>
    </g>
</svg>