<svg xmlns="http://www.w3.org/2000/svg" width="59" height="58" viewBox="0 0 59 58"><defs><mask id="1ar2b" width="2" height="2" x="-1" y="-1"><path fill="#fff" d="M6 4h47v46H6z"/><path d="M29.5 50c12.703 0 23-10.297 23-23S42.203 4 29.5 4s-23 10.297-23 23 10.297 23 23 23z"/></mask><filter id="1ar2a" width="75" height="77" x="-8" y="-10" filterUnits="userSpaceOnUse"><feOffset dy="3" in="SourceGraphic" result="FeOffset1060Out"/><feGaussianBlur in="FeOffset1060Out" result="FeGaussianBlur1061Out" stdDeviation="1.6 1.6"/></filter><filter id="1ar2c" width="200%" height="200%" x="-50%" y="-50%"><feGaussianBlur in="SourceGraphic" result="FeGaussianBlur1066Out" stdDeviation="1.5 1.5"/></filter><mask id="1ar2d"><path fill="#fff" d="M29.5 50c12.703 0 23-10.297 23-23S42.203 4 29.5 4s-23 10.297-23 23 10.297 23 23 23z"/></mask><filter id="1ar2e" width="200%" height="200%" x="-50%" y="-50%"><feGaussianBlur in="SourceGraphic" result="FeGaussianBlur1071Out" stdDeviation="2.5 2.5"/></filter><mask id="1ar2f"><path fill="#fff" d="M29.5 50c12.703 0 23-10.297 23-23S42.203 4 29.5 4s-23 10.297-23 23 10.297 23 23 23z"/></mask><clipPath id="1ar2g"><path fill="#fff" d="M5 51V3h49v48zm24.5-1c12.703 0 23-10.297 23-23S42.203 4 29.5 4s-23 10.297-23 23 10.297 23 23 23z"/></clipPath></defs><g><g><g filter="url(#1ar2a)"><path fill="none" d="M29.5 50c12.703 0 23-10.297 23-23S42.203 4 29.5 4s-23 10.297-23 23 10.297 23 23 23z" mask="url(&quot;#1ar2b&quot;)"/><path fill="#191919" d="M29.5 50c12.703 0 23-10.297 23-23S42.203 4 29.5 4s-23 10.297-23 23 10.297 23 23 23z"/></g><path fill="#141414" d="M29.5 50c12.703 0 23-10.297 23-23S42.203 4 29.5 4s-23 10.297-23 23 10.297 23 23 23z"/><path fill-opacity=".5" d="M3 54V0h53v54zm26.5-3c12.703 0 23-10.297 23-23S42.203 5 29.5 5s-23 10.297-23 23 10.297 23 23 23z" filter="url(#1ar2c)" mask="url(&quot;#1ar2d&quot;)"/><path fill-opacity=".5" d="M1 57V-3h57v60zm28.5-5c12.703 0 23-10.297 23-23S42.203 6 29.5 6s-23 10.297-23 23 10.297 23 23 23z" filter="url(#1ar2e)" mask="url(&quot;#1ar2f&quot;)"/><path fill="none" stroke="#000" stroke-linejoin="round" stroke-miterlimit="20" stroke-width="2" d="M29.5 50c12.703 0 23-10.297 23-23S42.203 4 29.5 4s-23 10.297-23 23 10.297 23 23 23z" clip-path="url(&quot;#1ar2g&quot;)"/></g></g></svg>