<?xml version="1.0" encoding="iso-8859-1"?>
<svg version="1.1" id="Capa_1" xmlns="http://www.w3.org/2000/svg" x="0px" y="0px"
     viewBox="0 0 512 512" xml:space="preserve" width="19" height="19">
<rect style="fill:#FFCC3E;" width="512" height="512"/>
    <polygon style="fill:#E0AC2B;" points="512,0 0,0 512,512 "/>
    <rect x="29.288" y="29.288" style="fill:#F2B827;" width="453.423" height="453.423"/>
    <polygon style="fill:#D69C1A;" points="482.713,29.287 29.287,29.287 482.713,482.713 "/>
    <rect x="60.97" y="60.97" style="fill:#A0D7E8;" width="390.06" height="390.06"/>
    <path style="fill:#FFFCFF;" d="M60.973,178.786c7.158-4.044,15.433-6.353,24.242-6.353c13.27,0,25.307,5.245,34.179,13.761
	c5.945-8.474,15.799-14.023,26.948-14.023c15.141,0,27.888,10.23,31.723,24.158c8.997-9.425,21.661-15.308,35.715-15.308
	c22.371,0,41.253,14.879,47.323,35.286c3.762-1.505,7.879-2.341,12.184-2.341c6.969,0,13.437,2.173,18.756,5.872
	c9.132-25.422,33.447-43.614,62.015-43.614c21.901,0,41.284,10.689,53.269,27.126c4.629-12.56,16.718-21.525,30.887-21.525
	c4.545,0,8.882,0.92,12.81,2.591v184.706l-390.05,25.075V178.786z"/>
    <path style="fill:#93CE12;" d="M451.023,333.076v117.948H60.973V262.545c64.272,0,167.194,43.091,286.615,61.91
	C380.942,329.71,415.58,333.076,451.023,333.076z"/>
    <path style="fill:#A0D7E8;" d="M60.973,377.181c20.428,0.888,42.642,1.379,65.86,1.379c100.791,0,182.491-9.132,182.491-20.396
	c0-11.254-81.701-20.386-182.491-20.386c-23.218,0-45.432,0.481-65.86,1.369"/>
    <path style="fill:#EDEDED;" d="M451.027,265.283v67.793c-141.385,0-269.97-53.488-355.129-67.302
	c9.101-25.464,33.447-43.677,62.046-43.677c25.819,0,48.159,14.858,58.964,36.488c5.81-5.151,13.437-8.276,21.807-8.276
	c10.679,0,20.167,5.089,26.185,12.967c8.777-8.035,20.48-12.946,33.322-12.946c26.54,0,48.18,20.95,49.309,47.219
	c5.204-3.438,11.431-5.444,18.129-5.444c4.848,0,9.435,1.045,13.584,2.926c5.789-20.825,24.879-36.101,47.543-36.101
	C435.594,258.93,443.87,261.239,451.027,265.283z"/>
    <path style="fill:#86B20D;" d="M451.023,333.076v117.948H181.815c215.249-23.249,231.967-95.859,165.773-126.568
	C380.942,329.71,415.58,333.076,451.023,333.076z"/>
    <g>
</g>
    <g>
</g>
    <g>
</g>
    <g>
</g>
    <g>
</g>
    <g>
</g>
    <g>
</g>
    <g>
</g>
    <g>
</g>
    <g>
</g>
    <g>
</g>
    <g>
</g>
    <g>
</g>
    <g>
</g>
    <g>
</g>
</svg>
