<svg xmlns="http://www.w3.org/2000/svg" width="44" height="44" viewBox="7 6 30 30">
    <defs>
        <filter id="2jh2a" width="200%" height="200%" x="-50%" y="-50%">
            <feGaussianBlur in="SourceGraphic" result="FeGaussianBlur1138Out" stdDeviation="1.5 1.5"/>
        </filter>
        <mask id="2jh2b">
            <path fill="#fff" d="M34.993 22.955c-.28-.072-.56 0-.804.18a10.2 10.2 0 0 1-3.112 1.87c-1.085.431-2.274.647-3.533.647-2.832 0-5.42-1.187-7.274-3.092a10.725 10.725 0 0 1-3.007-7.479c0-1.222.21-2.409.56-3.487A9.733 9.733 0 0 1 19.5 8.502a.935.935 0 0 0-.14-1.295c-.245-.18-.525-.251-.804-.18-2.973.828-5.56 2.661-7.414 5.106a14.443 14.443 0 0 0-2.833 8.63c0 3.918 1.539 7.478 4.057 10.066C14.885 33.418 18.312 35 22.159 35c3.217 0 6.19-1.15 8.568-3.056 2.413-1.942 4.161-4.71 4.896-7.874.14-.503-.14-1.007-.63-1.115z"/>
        </mask>
    </defs>
    <g><g>
        <path fill="#3d45de" fill-opacity=".27" d="M34.993 22.955c-.28-.072-.56 0-.804.18a10.2 10.2 0 0 1-3.112 1.87c-1.085.431-2.274.647-3.533.647-2.832 0-5.42-1.187-7.274-3.092a10.725 10.725 0 0 1-3.007-7.479c0-1.222.21-2.409.56-3.487A9.733 9.733 0 0 1 19.5 8.502a.935.935 0 0 0-.14-1.295c-.245-.18-.525-.251-.804-.18-2.973.828-5.56 2.661-7.414 5.106a14.443 14.443 0 0 0-2.833 8.63c0 3.918 1.539 7.478 4.057 10.066C14.885 33.418 18.312 35 22.159 35c3.217 0 6.19-1.15 8.568-3.056 2.413-1.942 4.161-4.71 4.896-7.874.14-.503-.14-1.007-.63-1.115z"/>
        <path fill-opacity=".5" d="M5 39V3h34v36zm29.993-15.045c-.28-.072-.56 0-.804.18a10.2 10.2 0 0 1-3.112 1.87c-1.085.431-2.274.647-3.533.647-2.832 0-5.42-1.187-7.274-3.092a10.725 10.725 0 0 1-3.007-7.479c0-1.222.21-2.409.56-3.487A9.733 9.733 0 0 1 19.5 9.502a.935.935 0 0 0-.14-1.295c-.245-.18-.525-.251-.804-.18-2.973.828-5.56 2.661-7.414 5.106a14.443 14.443 0 0 0-2.833 8.63c0 3.918 1.539 7.478 4.057 10.066C14.885 34.418 18.312 36 22.159 36c3.217 0 6.19-1.15 8.568-3.056 2.413-1.942 4.161-4.71 4.896-7.874.14-.503-.14-1.007-.63-1.115z" filter="url(#2jh2a)" mask="url(&quot;#2jh2b&quot;)"/>
        <path fill="none" stroke="#fff" stroke-miterlimit="20" stroke-width=".5" d="M34.993 22.955c-.28-.072-.56 0-.804.18a10.2 10.2 0 0 1-3.112 1.87c-1.085.431-2.274.647-3.533.647-2.832 0-5.42-1.187-7.274-3.092a10.725 10.725 0 0 1-3.007-7.479c0-1.222.21-2.409.56-3.487A9.733 9.733 0 0 1 19.5 8.502a.935.935 0 0 0-.14-1.295c-.245-.18-.525-.251-.804-.18-2.973.828-5.56 2.661-7.414 5.106a14.443 14.443 0 0 0-2.833 8.63c0 3.918 1.539 7.478 4.057 10.066C14.885 33.418 18.312 35 22.159 35c3.217 0 6.19-1.15 8.568-3.056 2.413-1.942 4.161-4.71 4.896-7.874.14-.503-.14-1.007-.63-1.115z"/>
    </g></g>
</svg>