<svg xmlns="http://www.w3.org/2000/svg" width="25" height="27" viewBox="0 0 25 27">
    <g>
        <g>
            <g>
                <path fill="#fff"
                      d="M23.21 20.337a1.29 1.29 0 0 1-.34 1.01 1.361 1.361 0 0 1-.995.427H3.126c-.384 0-.732-.152-.991-.427a1.278 1.278 0 0 1-.344-1.01c.063-.658.692-1.176 1.429-1.176 1.178 0 2.138-.936 2.138-2.086v-5.317c0-1.907.777-3.688 2.183-5.012a7.17 7.17 0 0 1 5.223-1.951c3.79.13 6.88 3.34 6.88 7.15v5.13c0 1.15.959 2.086 2.138 2.086.736 0 1.361.518 1.428 1.176zm-10.704 4.921c-1.079 0-1.982-.75-2.193-1.742h4.385c-.21.993-1.114 1.742-2.192 1.742zm1.248-22.284c0 .057-.009.11-.018.166a8.04 8.04 0 0 0-.916-.083 9.352 9.352 0 0 0-1.565.087c-.009-.056-.018-.109-.018-.165 0-.684.565-1.237 1.259-1.237.693 0 1.258.553 1.258 1.232zm7.675 14.101v-5.13c0-3.81-2.5-7.133-5.942-8.374.04-.196.063-.396.063-.597C15.55 1.333 14.184 0 12.5 0c-1.682 0-3.048 1.333-3.048 2.974 0 .196.022.392.058.58A8.91 8.91 0 0 0 6.3 5.49c-1.759 1.655-2.728 3.88-2.728 6.267v5.317a.35.35 0 0 1-.352.344c-1.647 0-3.054 1.211-3.205 2.753a3.004 3.004 0 0 0 .799 2.347c.589.631 1.433.997 2.312.997H8.51C8.733 25.471 10.438 27 12.5 27c2.063 0 3.768-1.529 3.992-3.484h5.383c.88 0 1.724-.366 2.313-.997.589-.636.88-1.49.799-2.347-.152-1.542-1.563-2.753-3.205-2.753a.346.346 0 0 1-.353-.344z"/>
            </g>
        </g>
    </g>
</svg>