<?xml version="1.0" encoding="UTF-8"?>
<svg width="14px" height="14px" viewBox="0 0 14 14" version="1.1" xmlns="http://www.w3.org/2000/svg" xmlns:xlink="http://www.w3.org/1999/xlink">
    <title>link-7</title>
    <g id="Page-1" stroke="none" stroke-width="1" fill="none" fill-rule="evenodd">
        <g id="Expanded-View-Music--(Dropped)" transform="translate(-330.000000, -446.000000)" fill="#FFFFFF" fill-rule="nonzero">
            <g id="Group-2" transform="translate(63.000000, 441.000000)">
                <g id="link-7" transform="translate(274.000000, 12.000000) scale(-1, 1) translate(-274.000000, -12.000000) translate(267.000000, 5.000000)">
                    <path d="M12.6995591,6.37269502 L11.5050135,5.17785161 C11.2676956,4.94071613 10.8833369,4.94071613 10.645991,5.17785161 C10.408645,5.41518391 10.408645,5.79998782 10.645991,6.0371233 L11.8405366,7.23196671 C13.1025299,8.49423375 13.101321,10.5629133 11.8405366,11.840785 C10.5787402,13.1026584 8.51018678,13.1016462 7.23199932,11.840785 L6.03722875,10.6461665 C5.80010773,10.4088342 5.4153554,10.4088342 5.17800946,10.6461665 C4.94066351,10.8835269 4.94066351,11.2680778 5.17800946,11.5052414 L6.37559151,12.7028965 C7.25182032,13.567426 8.39837384,14 9.54250948,14 C10.689063,14 11.8336204,13.5655984 12.7025393,12.6970201 C14.4336015,10.9422344 14.4323644,8.10540917 12.6995591,6.37269502 Z" id="Path"></path>
                    <path d="M8.82197712,2.49485925 L7.62435205,1.29694342 C5.87003207,-0.43399492 3.03308106,-0.432589048 1.29737381,1.30281996 C-0.433666207,3.05746131 -0.432260412,5.8943433 1.30041032,7.62710927 L2.49522381,8.82198842 C2.61370423,8.94067218 2.7692133,9 2.92475048,9 C3.08006274,9 3.23559992,8.94067218 3.35427715,8.8217916 C3.59160351,8.58464903 3.59160351,8.19986173 3.35427715,7.96269104 L2.15946367,6.76781188 C0.897425064,5.50570391 0.898634048,3.43696253 2.15946367,2.15905255 C3.42169909,0.897141395 5.49032677,0.898378563 6.76816652,2.15905255 L7.96298,3.3539317 C8.20033447,3.59129921 8.58467889,3.59129921 8.82203335,3.3539317 C9.05933159,3.11678913 9.05933159,2.73200183 8.82197712,2.49485925 Z" id="Path"></path>
                    <path d="M8.83416014,8.0337696 L5.96623018,5.16585842 C5.74529374,4.94471386 5.38680249,4.94471386 5.16583986,5.16585842 C4.94472005,5.38679341 4.94472005,5.74528231 5.16583986,5.9662435 L8.03376982,8.83415468 C8.14434283,8.94472696 8.28904912,9 8.43396498,9 C8.57888084,9 8.72358714,8.94472696 8.83416014,8.83415468 C9.05527995,8.61319349 9.05527995,8.25470459 8.83416014,8.0337696 Z" id="Path"></path>
                </g>
            </g>
        </g>
    </g>
</svg>