<?xml version="1.0" encoding="UTF-8"?>
<svg width="28px" height="32px" viewBox="0 0 28 32" version="1.1" xmlns="http://www.w3.org/2000/svg" xmlns:xlink="http://www.w3.org/1999/xlink">
    <title>Open Sea</title>
    <g id="Page-1" stroke="none" stroke-width="1" fill="none" fill-rule="evenodd">
        <g id="11pro-max-copy-2" transform="translate(-193.000000, -560.000000)" stroke="#FFFFFF" stroke-width="1.5">
            <g id="Group-11" transform="translate(36.000000, 555.000000)">
                <g id="Group-8" transform="translate(140.000000, 0.000000)">
                    <g id="Open-Sea" transform="translate(18.000000, 7.000000)">
                        <path d="M12,4 L12.0007294,6.35037531 C13.8257109,6.55804314 14.9106911,6.70972605 15.2556701,6.80542402 C16.1402062,7.05079638 19.6783505,10.7313818 19.9731959,14.4119673 C20.1697595,16.8656909 19.2852234,19.0740422 17.3195876,21.0370211 C16.7253285,20.4821728 15.5217851,20.0486816 13.7089575,19.7365476 C13.1216935,19.635432 12.5518709,19.5610644 11.9994898,19.5134447 L12,23 L11,23 L11.0001129,19.4559359 C10.2186465,19.4342713 9.47496625,19.470555 8.76907216,19.5647869 C9.16219931,17.4382264 9.35876289,15.2298752 9.35876289,12.9397331 C9.35876289,10.649591 8.57250859,8.2776582 7,5.82393457 C8.54872477,5.97859771 9.8826872,6.11701297 11.0018873,6.23918035 L11,4 L12,4 Z" id="Combined-Shape"></path>
                        <circle id="Oval" cx="11.5" cy="1.5" r="2.25"></circle>
                        <path d="M4.01773039,10.9807797 L6.25,11.9471302 L6.25,17.25 L1.16523517,17.25 L4.01773039,10.9807797 Z" id="Path-3"></path>
                        <path d="M0.122940897,20.5 L6.41048179,20.5 C6.36714138,21.3258016 6.44775088,21.9924682 6.65231028,22.5 C6.67233797,22.5496907 6.99477597,22.883024 7.61962426,23.5 L17.5345926,23.75 C17.889716,23.6493913 18.212154,23.3993913 18.5019066,23 C18.7916591,22.6006087 18.9528781,22.1839421 18.9855636,21.75 C20.047677,21.7492557 21.17621,21.582589 22.3711625,21.25 C23.566115,20.917411 24.533429,20.5007443 25.2731045,20 C25.7174408,20.1707363 25.9592693,20.337403 25.9985899,20.5 C26.0566821,20.7402203 24.3057905,21 23.3384765,22.75 C22.6936005,23.9166667 21.968115,25.5833333 21.16202,27.75 L19.9528775,27.75 C19.6304396,27.3690476 19.1467826,27.202381 18.5019066,27.25 C17.8570306,27.297619 17.2121546,27.547619 16.5672786,28 L15.5999646,28 C14.9051508,27.5 14.2602748,27.25 13.6653367,27.25 C13.0703985,27.25 12.506132,27.5 11.9725372,28 L10.5215662,28 C9.95729972,27.5 9.39303323,27.25 8.82876674,27.25 C8.26450025,27.25 7.70023376,27.5 7.13596727,28 L5.92682479,28 C5.2703571,27.5 4.62548111,27.25 3.99219683,27.25 C3.35891254,27.25 2.79464605,27.5 2.29939736,28 C1.39400268,26.9911497 0.749126694,25.8244831 0.364769392,24.5 C-0.0195879095,23.1755169 -0.100197408,21.8421836 0.122940897,20.5 Z" id="Path-4"></path>
                        <path d="M16.1577751,11.7141023 C16.0086188,12.8173589 15.6789023,13.9640103 15.1728464,15.1542176 C14.8427425,15.9305983 14.5019811,16.6345429 14.1492106,17.264791 L14.1492106,17.264791 Z" id="Path-5"></path>
                    </g>
                </g>
            </g>
        </g>
    </g>
</svg>