<?xml version="1.0" encoding="UTF-8"?>
<svg width="22px" height="20px" viewBox="0 0 22 20" version="1.1" xmlns="http://www.w3.org/2000/svg" xmlns:xlink="http://www.w3.org/1999/xlink">
    <title>share-7</title>
    <g id="Page-1" stroke="none" stroke-width="1" fill="none" fill-rule="evenodd">
        <g id="11pro-max-copy-9" transform="translate(-196.000000, -558.000000)" fill="#FFFFFF" fill-rule="nonzero">
            <g id="share-7" transform="translate(196.000000, 558.000000)">
                <path d="M21.7532537,5.77205453 L16.1976782,0.244108027 C15.9575681,0.00511511313 15.5974029,-0.06578354 15.285277,0.0643262307 C14.9725924,0.194135219 14.7690488,0.49930021 14.7690488,0.837680145 L14.7690488,3.34701981 C12.0148725,3.52903599 10.6395675,4.67093399 10.3910785,4.89845421 C6.93500547,7.77491999 7.31721366,11.6972483 7.43335854,12.4776062 C7.43503433,12.4887781 7.43671012,12.5002078 7.43864372,12.5113797 L7.55031984,13.1535067 C7.61034736,13.4985897 7.87808646,13.7696804 8.22205235,13.8336181 C8.27340016,13.8431142 8.32479094,13.8478408 8.37562313,13.8478408 C8.66626464,13.8478408 8.94070688,13.6965044 9.09367609,13.4410544 L9.42840367,12.8832324 C11.2581905,9.84009034 13.5193419,9.35011619 14.7690059,9.34590524 L14.7690059,11.9493468 C14.7690059,12.2885431 14.9736666,12.5940089 15.2874684,12.7235171 C15.6012701,12.8527675 15.9616931,12.780193 16.200686,12.5400829 L21.7563474,6.95636282 C22.0824383,6.62859619 22.0810203,6.09814536 21.7532537,5.77205453 Z M16.4444914,9.91992652 L16.4444914,8.57117632 C16.4444914,8.15992116 16.1463304,7.80955291 15.7403604,7.74424021 C14.7738184,7.58873583 11.7317505,7.40139151 9.10459019,10.467436 C9.27405945,9.21609625 9.83467444,7.53429426 11.4785349,6.173212 C11.4986443,6.15645413 11.5056053,6.15086818 11.524039,6.13243453 C11.5363281,6.12100481 12.7854334,4.99754045 15.5228519,4.99754045 L15.6065982,4.99754045 C16.0692012,4.99754045 16.4441477,4.622594 16.4441477,4.15999103 L16.4441477,2.8525769 L19.9781233,6.36841962 L16.4444914,9.91992652 Z" id="Shape"></path>
                <path d="M18.7056428,14.6016439 C18.2430399,14.6016439 17.8680934,14.9765903 17.8680934,15.4391933 L17.8680934,17.8122786 L1.67514181,17.8122786 L1.67514181,5.52803425 L6.70052428,5.52803425 C7.16312725,5.52803425 7.53807371,5.1530878 7.53807371,4.69048483 C7.53807371,4.22788186 7.16312725,3.85293541 6.70052428,3.85293541 L0.837549422,3.85293541 C0.374946453,3.85293541 0,4.22783889 0,4.69044186 L0,18.649871 C0,19.112474 0.374946453,19.4874205 0.837549422,19.4874205 L18.7056428,19.4874205 C19.1682458,19.4874205 19.5431922,19.112474 19.5431922,18.649871 L19.5431922,15.4391933 C19.5431922,14.9765903 19.1682458,14.6016439 18.7056428,14.6016439 Z" id="Path"></path>
            </g>
        </g>
    </g>
</svg>