<svg xmlns="http://www.w3.org/2000/svg" width="19" height="19" viewBox="0 0 19 19"><g><g><g><g><path fill="#fff" d="M11.053 8.676a.729.729 0 0 1-.518-.215 2.934 2.934 0 0 0-4.145 0 .732.732 0 1 1-1.035-1.035 4.4 4.4 0 0 1 6.216 0 .732.732 0 0 1-.518 1.25z"/></g></g><g><g><path fill="#fff" d="M10.533 12.856a4.382 4.382 0 0 1-3.108-1.286.732.732 0 1 1 1.035-1.035 2.934 2.934 0 0 0 4.145 0 .732.732 0 1 1 1.036 1.035 4.383 4.383 0 0 1-3.108 1.286z"/></g></g><g><g><path fill="#fff" d="M13.123 11.787a.732.732 0 0 1-.518-1.25l4.092-4.092a.732.732 0 1 1 1.036 1.035l-4.093 4.093a.729.729 0 0 1-.518.214z"/></g></g><g><g><path fill="#fff" d="M6.963 17.953a.732.732 0 0 1-.518-1.25l2.287-2.288a.732.732 0 1 1 1.036 1.035L7.48 17.738a.729.729 0 0 1-.517.215z"/></g></g><g><g><path fill="#fff" d="M1.782 12.767a.732.732 0 0 1-.518-1.25l4.093-4.092A.732.732 0 1 1 6.393 8.46L2.3 12.552a.732.732 0 0 1-.517.215z"/></g></g><g><g><path fill="#fff" d="M9.752 4.803a.73.73 0 0 1-.517-1.25l2.287-2.288A.733.733 0 0 1 12.558 2.3l-2.287 2.288a.734.734 0 0 1-.519.214z"/></g></g><g><g><path fill="#fff" d="M4.372 19.005a4.383 4.383 0 0 1-3.108-1.264c-1.685-1.685-1.685-4.531 0-6.216A.732.732 0 1 1 2.3 12.56c-1.123 1.123-1.123 3.022 0 4.145 1.123 1.123 3.02 1.123 4.144 0A.732.732 0 1 1 7.48 17.74a4.381 4.381 0 0 1-3.108 1.264z"/></g></g><g><g><path fill="#fff" d="M17.223 7.694a.732.732 0 0 1-.518-1.25c1.123-1.123 1.123-3.021 0-4.144-1.123-1.123-3.022-1.123-4.145 0a.732.732 0 1 1-1.035-1.036c1.685-1.685 4.531-1.685 6.216 0 1.685 1.685 1.685 4.531 0 6.216a.732.732 0 0 1-.518.214z"/></g></g></g></g></svg>