<svg xmlns="http://www.w3.org/2000/svg" width="20" height="20" viewBox="0 0 20 20"><g><g opacity=".8"><g opacity=".8"><path fill="#fff" d="M5.525 4.546a.739.739 0 0 0-1.045 0A5.05 5.05 0 0 0 3.036 8.64a.739.739 0 1 0 1.47-.147 3.578 3.578 0 0 1 1.02-2.902.739.739 0 0 0 0-1.045z"/></g><g opacity=".8"><path fill="#fff" d="M8.448 15.419a6.978 6.978 0 0 1-6.97-6.97 6.978 6.978 0 0 1 6.97-6.971 6.978 6.978 0 0 1 6.97 6.97 6.978 6.978 0 0 1-6.97 6.97zM8.448 0C3.79 0 0 3.79 0 8.448c0 4.659 3.79 8.449 8.448 8.449 4.659 0 8.449-3.79 8.449-8.449C16.897 3.79 13.107 0 8.448 0z"/></g><g opacity=".8"><path fill="#fff" d="M19.78 18.736l-5.369-5.37a.739.739 0 1 0-1.044 1.045l5.369 5.37a.736.736 0 0 0 1.045 0 .739.739 0 0 0 0-1.045z"/></g></g></g></svg>