<svg xmlns="http://www.w3.org/2000/svg" width="19" height="19" viewBox="0 0 19 19"><g><g><g><path fill="#fff" d="M16.031 3.719a.745.745 0 0 0-.742-.747H3.711c-.985.039-.984 1.455 0 1.494h11.578c.41 0 .742-.335.742-.747zm-.927 7.825c-1.23.048-1.231 1.806 0 1.855a.928.928 0 0 0 0-1.855zM3.712 7.424h11.583c1.23 0 2.23 1 2.23 2.23v5.635c0 1.23-1 2.23-2.23 2.23H4.458a2.976 2.976 0 0 1-2.974-2.972V6.685c.622.465 1.393.74 2.228.74zm14.546-2.189c.41 0 .742-.332.742-.742v-.78A3.718 3.718 0 0 0 15.286 0S3.652.002 3.623.005C2.644.04 1.703.46 1.025 1.17A3.658 3.658 0 0 0 .002 3.842L0 14.547a4.461 4.461 0 0 0 4.456 4.456h10.83A3.718 3.718 0 0 0 19 15.289V9.654a3.718 3.718 0 0 0-3.714-3.714H3.711a2.222 2.222 0 0 1-2.224-2.12 2.188 2.188 0 0 1 .612-1.625 2.297 2.297 0 0 1 1.654-.708l11.533-.003c1.23 0 2.23 1 2.23 2.23v.779c0 .41.332.742.742.742z"/></g></g></g></svg>